<svg xmlns="http://www.w3.org/2000/svg" width="40" height="40" fill="none"><path fill="#006FFF" d="M29.375 10h-1.25v1.25h1.25V10ZM25.002 18.753V16.25h2.5v2.5H30v.793c0 .915-.078 2-.257 2.853-.1.476-.252.95-.43 1.404a9.8 9.8 0 0 1-1.668 2.801l-.022.025-.035.041a7.506 7.506 0 0 1-.297.334c-.122.13-.248.254-.377.378a9.938 9.938 0 0 1-5.863 2.723 13.74 13.74 0 0 1-1.051.055c-.264-.001-.79-.028-1.051-.055a9.942 9.942 0 0 1-5.863-2.723 10.028 10.028 0 0 1-.377-.378c-.11-.114-.21-.23-.31-.349l-.043-.05a9.8 9.8 0 0 1-1.669-2.802 8.923 8.923 0 0 1-.43-1.404c-.18-.853-.257-1.938-.257-2.853v-9.386h4.998v8.597s0 .66.009.875l.002.05c.01.28.02.553.05.825.082.771.253 1.504.605 2.123.101.18.205.353.328.518a5.028 5.028 0 0 0 3.324 1.965c.17.024.512.046.684.046.172 0 .514-.022.684-.046a5.028 5.028 0 0 0 3.324-1.965c.124-.165.227-.339.329-.518.352-.62.522-1.352.605-2.123.029-.273.039-.547.05-.826l.001-.05c.009-.215.009-.874.009-.874ZM25.625 11.875H27.5v1.874H30v2.5h-2.5V13.75h-1.875v-1.875Z"/></svg>