<svg width="14" height="14" fill="none">
  <path fill="#006FFF" fill-rule="evenodd" d="M5.5 5.5V1H1v4.5h4.5ZM1 0h4.5a1 1 0 0 1 1 1v4.5a1 1 0 0 1-1 1H1a1 1 0 0 1-1-1V1a1 1 0 0 1 1-1Zm4.5 13V8.5H1V13h4.5ZM1 7.5h4.5a1 1 0 0 1 1 1V13a1 1 0 0 1-1 1H1a1 1 0 0 1-1-1V8.5a1 1 0 0 1 1-1ZM13 1v4.5H8.5V1H13Zm0-1H8.5a1 1 0 0 0-1 1v4.5a1 1 0 0 0 1 1H13a1 1 0 0 0 1-1V1a1 1 0 0 0-1-1Zm0 13V8.5H8.5V13H13ZM8.5 7.5H13a1 1 0 0 1 1 1V13a1 1 0 0 1-1 1H8.5a1 1 0 0 1-1-1V8.5a1 1 0 0 1 1-1Z" clip-rule="evenodd"/>
</svg>